# xmcd
#
# Track frame offsets:
#	150
#	13818
#	27917
#	43037
#	63409
#	84921
#	97949
#	119140
#	137647
#	149340
#	163803
#
# Disc length: 2391 seconds
#
# Revision: 1
# Processed by: cddbd v1.5.1PL0 Copyright (c) Steve Scherf et al.
# Submitted via: audiograbber 1.82.02
#
DISCID=9509550b
DTITLE=Blue Move - 2nd Gear
DYEAR=2004
DGENRE=Blues
TTITLE0=Sitting And Waiting
TTITLE1=Mess Around
TTITLE2=Starting Up
TTITLE3=Someday After A While
TTITLE4=Feel So Bad
TTITLE5=Rocket 88
TTITLE6=Stagger Lee
TTITLE7=Restless Heart
TTITLE8=Mess Of Blues
TTITLE9=The Hat Attack
TTITLE10=Steamroller Blues
EXTD=
EXTT0=
EXTT1=
EXTT2=
EXTT3=
EXTT4=
EXTT5=
EXTT6=
EXTT7=
EXTT8=
EXTT9=
EXTT10=
PLAYORDER=
